<?xml version="1.0" encoding="utf-8"?>
<svg viewBox="0 0 500 500" xmlns="http://www.w3.org/2000/svg" xmlns:bx="https://boxy-svg.com">
  <defs>
    <clipPath id="clippath50" transform="">
      <path d="M 0 0 L 841.89 0 L 841.89 595.282 L 0 595.282 Z" style="fill: none; clip-rule: nonzero;"/>
    </clipPath>
    <clipPath id="clippath52" transform="">
      <path d="M 0 0 L 841.89 0 L 841.89 595.282 L 0 595.282 Z" style="fill: none; clip-rule: nonzero;"/>
    </clipPath>
    <clipPath id="clippath53" transform="" style="clip-path: url(#clippath52);">
      <rect x="399.591" y="120.362" width="256.895" height="61.58" style="clip-rule: nonzero;"/>
    </clipPath>
  </defs>
  <circle style="fill: rgb(139, 162, 193);" transform="matrix(1.082045, 0.124595, -0.0345, 0.2839, -816.388611, -253.490906)" cx="1100.033" cy="575.211" r="177.435"/>
  <g transform="matrix(0.192448, -0.001085, -0.001333, -0.236423, 225.886765, 294.829956)" style="">
    <g style="clip-path: url(#clippath50);" transform="matrix(1.774998, 0, 0, 1.774998, -510.564484, 709.1651)">
      <g transform="translate(649.7319 221.4141)">
        <path d="M 0 0 C 0 0 -6.102 -14.514 -8.256 -20.207 C -10.416 -25.924 -29.555 -57.676 -31.852 -59.955 C -34.154 -62.237 -26.094 7.385 -26.094 7.385 Z" style="fill: rgb(255, 255, 255); fill-opacity: 1;"/>
      </g>
    </g>
    <g style="clip-path: url(#clippath50);" transform="matrix(1.774998, 0, 0, 1.774998, -510.564484, 709.1651)">
      <g transform="translate(622.48 168.2178)">
        <path d="M 0 0 C 6.502 10.271 17.396 28.752 18.998 32.989 C 19.078 33.2 19.166 33.428 19.258 33.664 L 4.791 35.983 L 4.742 28.968 Z" style="fill: rgb(89, 89, 89); fill-opacity: 1;"/>
      </g>
    </g>
    <g style="clip-path: url(#clippath50);" transform="matrix(1.774998, 0, 0, 1.774998, -510.564484, 709.1651)">
      <g transform="translate(450.3687 221.3115)">
        <path d="M 0 0 L 1.756 -11.406 C 1.756 -11.406 6.324 -27.65 15.902 -35.297 C 25.521 -42.984 37.184 -49.924 66.9 -51.943 C 96.639 -53.955 169.486 -60.939 169.486 -60.939 C 169.486 -60.939 172.75 -50.988 172.854 -37.609 C 172.959 -24.338 177.932 2.281 177.328 9.873 C 176.723 17.434 176.92 24.629 176.92 24.629 C 176.92 24.629 174.051 19.561 173.785 15.756 C 173.516 11.943 172.631 8.727 172.631 8.727 L 115.711 -0.258 C 115.711 -0.258 61.701 -9.119 50.449 -8.59 C 39.197 -8.064 16.178 -9.969 9.324 -3.822 C 2.496 2.301 -0.291 3.881 -0.291 3.881 Z" style="fill: rgb(255, 255, 255); fill-opacity: 1;"/>
      </g>
    </g>
    <g style="clip-path: url(#clippath50);" transform="matrix(1.774998, 0, 0, 1.774998, -510.564484, 709.1651)">
      <g transform="translate(619.853 160.377)">
        <path d="M 0 0 C 0 0 3.264 9.953 3.369 23.33 C 3.41 28.602 4.223 35.984 5.146 43.441 L 4.916 43.404 L -61.23 34.184 C -61.23 34.184 -118.738 25.937 -142.074 31.204 C -154.283 33.96 -161.857 40.11 -166.301 45.323 C -164.279 39.985 -160.086 30.825 -153.584 25.636 C -143.963 17.949 -132.301 11.009 -102.586 8.99 C -72.846 6.987 0 0 0 0" style="fill: rgb(89, 89, 89); fill-opacity: 1;"/>
      </g>
    </g>
    <g style="clip-path: url(#clippath50);" transform="matrix(1.774998, 0, 0, 1.774998, -510.564484, 709.1651)">
      <g transform="translate(509.5679 188.2969)">
        <path d="M 0 0 C -16.578 -0.926 -29.227 -0.014 -41.635 5.449 C -56.98 12.203 -59.779 19.246 -59.891 19.541 C -60.242 20.479 -59.781 21.5 -58.861 21.832 C -57.939 22.166 -56.91 21.687 -56.559 20.748 C -56.545 20.723 -53.957 14.77 -40.275 8.755 C -22.889 1.109 -4.496 2.9 25.926 5.855 L 30.777 6.324 C 63.539 9.479 116.828 17.605 117.359 17.687 C 117.539 17.709 117.719 17.708 117.898 17.687 L 133.389 15.283 C 134.373 15.138 135.113 14.214 135.039 13.232 C 134.963 12.251 134.1 11.58 133.121 11.732 L 117.885 14.091 C 113.738 13.459 62.977 5.777 31.287 2.723 L 26.432 2.246 C 16.498 1.281 7.812 0.438 0 0" style="fill: rgb(1, 1, 3); fill-opacity: 1;"/>
      </g>
    </g>
    <g style="clip-path: url(#clippath50);" transform="matrix(1.774998, 0, 0, 1.774998, -510.564484, 709.1651)">
      <g transform="translate(489.3589 240.8018)">
        <path d="M 0 0 L 58.814 -12.729 L 88.393 -18.123 C 88.393 -18.123 8.814 -31.598 -5.471 -29.102 C -19.734 -26.607 -40.373 -21.229 -40.414 -13.658 C -40.455 -6.127 -39.518 -2.777 -35.586 -0.721 C -31.658 1.338 -22.061 4.092 -22.061 4.092 L -20.789 4.612 L -21.086 8.257 L -15.232 7.476 L -14.293 3.329 Z" style="fill: rgb(53, 26, 11); fill-opacity: 1;"/>
      </g>
    </g>
    <g style="clip-path: url(#clippath50);" transform="matrix(1.774998, 0, 0, 1.774998, -510.564484, 709.1651)">
      <g transform="translate(452.4604 223.5303)">
        <path d="M 0 0 C 0 0 1.25 4.996 15.301 6.779 C 29.336 8.563 46.359 5.096 50.883 3.66 C 55.412 2.215 72.594 -2.271 72.594 -2.271 L 85.865 -4.602 L 109.031 -2.26 C 109.031 -2.26 81.199 5.875 62.756 9.781 C 44.357 13.677 31.912 17.791 24.359 17.547 C 16.803 17.301 4.467 13.604 1.82 8.574 C -0.836 3.527 0 0 0 0" style="fill: rgb(35, 15, 7); fill-opacity: 1;"/>
      </g>
    </g>
    <g style="clip-path: url(#clippath50);" transform="matrix(1.774998, 0, 0, 1.774998, -510.564484, 709.1651)">
      <g transform="translate(452.9878 222.0781)">
        <path d="M 0 0 L 58.059 2.491 L 57.252 -2.593 L 12.209 -5.076 Z" style="fill: rgb(1, 1, 3); fill-opacity: 1;"/>
      </g>
    </g>
    <g style="clip-path: url(#clippath50);" transform="matrix(1.774998, 0, 0, 1.774998, -510.564484, 709.1651)">
      <g transform="translate(629.9097 231.2539)">
        <path d="M 0 0 C 0 0 9.848 -3.67 12.92 -4.312 C 15.996 -4.958 21.656 -6.185 21.656 -6.185 C 21.656 -6.185 21.881 -9.591 21.221 -10.685 C 20.559 -11.778 19.467 -12.657 19.467 -12.657 L -0.625 -7.579 Z" style="fill: rgb(118, 58, 24); fill-opacity: 1;"/>
      </g>
    </g>
    <g style="clip-path: url(#clippath50);" transform="matrix(1.774998, 0, 0, 1.774998, -510.564484, 709.1651)">
      <g transform="translate(626.3179 246.4424)">
        <path d="M 0 0 C 0 0 -5.553 -3.033 -5.047 -10.09 C -4.541 -17.174 -5.406 -40.236 -5.406 -40.236 C -5.406 -40.236 -7.598 -81.955 -10.055 -84.031 L -12.516 -86.113 L -6.453 -86.07 C -6.453 -86.07 -1.516 -56.632 -0.934 -43.984 C -0.355 -31.426 1.678 -22.255 1.328 -14.502 C 0.98 -6.783 0.906 0.039 0.906 0.039 Z" style="fill: rgb(118, 58, 24); fill-opacity: 1;"/>
      </g>
    </g>
    <g style="clip-path: url(#clippath50);" transform="matrix(1.774998, 0, 0, 1.774998, -510.564484, 709.1651)">
      <g transform="translate(631.3687 243.3877)">
        <path d="M 0 0 C 0 0 0.148 1.572 0.033 2.436 C -0.564 2.771 -4.238 3.098 -4.238 3.098 L -6.176 -19.246 L -8.324 -46.168 L -10.455 -65.772 L -11.475 -72.886 L -12.746 -79.8 L -13.504 -81.938 L -13.391 -82.834 L -11.512 -83.019 L -7.125 -82.344 C -7.125 -82.344 -3.299 -57.048 -2.57 -46.239 C -1.84 -35.508 -0.314 -9.636 -0.131 -6.106 C 0.029 -2.58 0 0 0 0" style="fill: rgb(1, 1, 3); fill-opacity: 1;"/>
      </g>
    </g>
    <g style="clip-path: url(#clippath50);" transform="matrix(1.774998, 0, 0, 1.774998, -510.564484, 709.1651)">
      <g transform="translate(473.396 241.9463)">
        <path d="M 0 0 C 0 0 20.338 -3.727 36.156 -7.297 C 52.01 -10.873 84.334 -20 84.334 -20 L 110.109 -17.02 C 110.109 -17.02 61.416 -7.771 43.299 -4.223 C 25.221 -0.682 2.318 4.283 2.318 4.283 L 2.186 7.094 L -1.666 7.115 L -5.123 7.117 L -0.496 5.924 L -0.627 1.301" style="fill: rgb(1, 1, 3); fill-opacity: 1;"/>
      </g>
    </g>
    <g style="clip-path: url(#clippath50);" transform="matrix(1.774998, 0, 0, 1.774998, -510.564484, 709.1651)">
      <g transform="translate(466.7944 243.8711)">
        <path d="M 0 0 C -1.84 -0.521 -30.361 -7.416 -8.316 -22.562 C 13.93 -37.845 84.699 -20.944 105.967 -19.233 C 127.211 -17.522 155.227 -12.497 155.227 -12.497 C 155.227 -12.497 156.904 -14.704 156.367 -17.38 C 155.832 -20.063 155.229 -19.651 155.229 -19.651 C 155.229 -19.651 49.521 -36.151 31.455 -35.813 C 13.395 -35.475 -5.133 -33.166 -12.324 -27.557 C -19.492 -21.977 -18.469 -21.627 -18.469 -21.627 L -20.102 -10.889 C -20.102 -10.889 -20.041 -5.846 -12.414 -2.369 C -4.803 1.107 1.482 1.986 1.482 1.986 L 3.967 0.785 C 3.967 0.785 1.836 0.526 0 0" style="fill: rgb(118, 58, 24); fill-opacity: 1;"/>
      </g>
    </g>
    <g style="clip-path: url(#clippath53);" transform="matrix(1.774998, 0, 0, 1.774998, -510.564484, 709.1651)">
      <g transform="translate(457.1167 166.8359)">
        <path d="M 0 0 C 0.248 0.078 0.562 0.197 0.908 0.343 C 1.027 0.08 0.949 -0.23 0.869 -0.553 C -0.361 -0.118 -1.24 -0.39 0 0 M 187.781 -29.555 C 192.377 -29.133 203.855 -27.979 197.49 -26.379 C 191.135 -24.782 184.658 -23.19 189.127 -22.573 C 193.592 -21.952 202.129 -19.891 195.791 -18.307 C 189.465 -16.723 188.377 -16.357 189.875 -15.459 C 191.375 -14.563 196.412 -12.887 191.572 -12.272 C 186.732 -11.669 185.465 -10.284 185.465 -10.284 C 185.465 -10.284 188.154 -8.514 184.961 -7.836 C 181.771 -7.151 178.268 -4.439 178.268 -4.439 C 178.268 -4.439 178.586 -2.378 177.855 -2.417 C 177.127 -2.445 172.223 -2.466 172.711 -1.015 C 173.197 0.435 175.512 -1.093 173.197 0.435 C 170.887 1.955 169.555 4.538 169.555 4.538 C 169.555 4.538 171.779 5.848 167.633 6.575 C 163.49 7.308 161.275 8.579 161.275 8.579 L 14.496 15.106 C 14.496 15.106 7.156 14.202 8.92 13.282 C 10.688 12.358 11.088 10.454 8.982 10.618 C 6.879 10.784 5.051 9.298 7.127 8.585 C 9.205 7.872 -1.506 5.325 4.24 4.606 C 9.994 3.877 -5.57 0.958 -1.129 0.952 C -0.639 0.952 -0.264 0.919 0.031 0.86 L -20.295 -5.06 L -57.526 -20.331 C -57.526 -20.331 -50.519 -20.583 -41.247 -20.685 C -31.973 -20.794 -30.096 -21.554 -23.062 -21.63 C -16.029 -21.71 -10.936 -10.423 -13.604 -9.624 C -16.264 -8.823 -18.32 -9.835 -14.592 -8.353 C -10.867 -6.874 -5.697 -8.372 -7.041 -7.847 C -8.385 -7.327 -12.779 -4.96 -3.563 -3.7 C 2.014 -2.931 -0.451 -2.05 1.02 -1.665 C 1.215 -1.808 1.541 -1.909 2.061 -1.95 C 5.332 -2.212 -2.256 -4.305 2.416 -5.155 C 7.102 -6.007 6.146 -9.522 12.504 -9.241 C 18.854 -8.958 31.082 -10.048 27.557 -11.433 C 24.031 -12.829 17.471 -14.364 24.869 -14.231 C 32.264 -14.103 46.492 -14.702 43.275 -15.878 C 40.053 -17.056 27.973 -17.606 40.213 -18.294 C 52.461 -18.981 71.281 -18.339 66.152 -20.231 C 61.006 -22.128 55.756 -24.657 64.381 -25.098 C 73.006 -25.541 95.443 -24.106 90.678 -25.993 C 85.908 -27.887 88.676 -30.483 99.539 -30.409 C 110.398 -30.336 123.5 -31.422 119.254 -32.459 C 115.004 -33.493 146.965 -33.301 142.057 -36.271 C 137.131 -39.251 166.221 -36.435 161.537 -39.415 C 156.84 -42.394 177.76 -39.938 174.053 -42.456 C 170.334 -44.976 177.199 -46.583 179.725 -46.468 C 182.254 -46.351 183.051 -43.321 178.672 -41.181 C 174.303 -39.04 175.652 -36.646 179.777 -36.245 C 183.895 -35.845 195.824 -34.444 191.332 -33.177 C 186.83 -31.911 183.184 -29.972 187.781 -29.555" style="fill-opacity: 1; fill: rgb(54, 54, 54);"/>
      </g>
    </g>
    <rect x="747.596" y="143.361" width="161.523" height="12.279" style="fill: rgb(118, 58, 24);" transform="matrix(0.886971, 0.461824, 0.454556, -0.890756, -501.69107, 796.663437)"/>
    <path d="M 1276.118 -315.6 L 1304.58 -290.149 L 1214.794 -290.149 L 1276.118 -315.6 Z" style="fill: rgb(118, 58, 24);" transform="matrix(0.954883, 0.296981, -0.291578, 0.956564, -1063.340454, 923.131042)" bx:shape="triangle 1214.794 -315.6 89.786 25.451 0.683 0 1@4ea394dd"/>
  </g>
  <rect x="372.706" y="-0.406" width="127.699" height="70.865" style="fill: rgb(139, 162, 193);"/>
  <rect x="543.778" y="36.672" width="0.444" height="0.444" style="fill: rgb(216, 216, 216); stroke: rgb(0, 0, 0);"/>
</svg>