<?xml version="1.0" encoding="utf-8"?>
<svg viewBox="0 0 1000 500" xmlns="http://www.w3.org/2000/svg" xmlns:xlink="http://www.w3.org/1999/xlink" xmlns:bx="https://boxy-svg.com">
  <defs>
    <linearGradient id="gradient-0-1" gradientUnits="userSpaceOnUse" x1="462.703" y1="125.275" x2="462.703" y2="267.376" gradientTransform="matrix(0.004767, -0.999987, 5.092398, 0.024275, -543.055176, 665.579407)" xlink:href="#gradient-0"/>
  </defs>
  <linearGradient id="gradient-0" bx:pinned="true">
    <stop offset="0" style="stop-color: rgb(168, 168, 168);"/>
    <stop offset="0.5" style="stop-color: rgb(139, 162, 193);"/>
    <stop offset="1" style="stop-color: rgb(83, 130, 201);"/>
  </linearGradient>
  <g>
    <path d="M 183.578 220.28 L 216.667 267.376 L 191.495 267.376 L 161.654 224.949 C 161.015 225.028 160.374 225.082 159.731 225.113 C 159.188 225.139 158.645 225.152 158.101 225.152 L 120.648 225.152 L 120.648 267.376 L 97.506 267.376 L 97.506 205.461 L 153.534 205.461 C 157.02 205.48 160.503 205.234 163.952 204.726 C 171.239 203.608 177.071 201.214 181.447 197.544 C 186.456 193.35 189.69 187.413 190.497 180.93 C 190.762 179.104 190.892 177.262 190.886 175.417 C 190.886 165.808 187.74 158.399 181.447 153.188 C 176.668 149.231 170.152 146.777 161.9 145.825 C 159.122 145.515 156.329 145.364 153.534 145.373 L 97.506 145.373 L 97.506 125.276 L 154.346 125.276 C 158.78 125.261 163.21 125.548 167.605 126.137 C 171.608 126.672 175.557 127.539 179.416 128.727 C 186.792 131.028 193.051 134.343 198.194 138.674 C 203.337 143.005 207.295 148.249 210.07 154.406 C 212.844 160.564 214.231 167.568 214.231 175.417 C 214.231 186.379 211.558 195.683 206.213 203.329 C 201.791 209.597 195.842 214.633 188.931 217.962 C 187.187 218.825 185.401 219.599 183.578 220.28 Z M 304.1 148.824 L 252.538 267.376 L 228.584 267.376 L 292.732 125.276 L 315.671 125.276 L 380.022 267.376 L 355.662 267.376 L 304.1 148.824 Z M 397.713 145.373 L 397.713 125.276 L 499.619 125.276 L 499.619 145.373 L 397.713 145.373 Z M 499.619 247.279 L 499.619 267.376 L 397.713 267.376 L 397.713 247.279 L 499.619 247.279 Z M 397.713 205.055 L 397.713 185.364 L 499.619 185.364 L 499.619 205.055 L 397.713 205.055 Z M 532.723 196.326 L 555.865 196.326 L 555.865 247.279 L 592.405 247.279 C 596.655 247.296 600.899 246.951 605.09 246.248 C 608.511 245.67 611.874 244.792 615.141 243.625 C 619.405 242.116 623.456 240.064 627.195 237.518 C 629.064 236.234 630.837 234.815 632.498 233.272 C 637.302 228.806 640.99 223.46 643.561 217.235 C 646.132 211.01 647.418 204.04 647.418 196.326 C 647.438 192.246 647.04 188.175 646.231 184.176 C 645.617 181.179 644.723 178.247 643.561 175.417 C 640.99 169.192 637.302 163.846 632.498 159.38 C 628.478 155.675 623.862 152.674 618.844 150.504 C 617.627 149.969 616.392 149.477 615.141 149.027 C 608.374 146.591 600.796 145.373 592.405 145.373 L 532.723 145.373 L 532.723 125.276 L 593.623 125.276 C 599.81 125.251 605.986 125.799 612.071 126.914 C 616.5 127.735 620.853 128.918 625.088 130.452 C 634.561 133.903 642.681 138.742 649.448 144.967 C 656.215 151.192 661.459 158.669 665.181 167.398 C 668.081 174.29 669.862 181.6 670.456 189.054 C 670.662 191.472 670.765 193.899 670.763 196.326 C 670.763 206.882 668.902 216.524 665.181 225.253 C 661.459 233.982 656.215 241.46 649.448 247.685 C 642.681 253.91 634.561 258.748 625.088 262.199 C 615.615 265.65 605.126 267.376 593.623 267.376 L 532.723 267.376 L 532.723 196.326 Z M 751.978 148.824 L 700.416 267.376 L 676.462 267.376 L 740.61 125.276 L 763.549 125.276 L 827.9 267.376 L 803.54 267.376 L 751.978 148.824 Z" id="0" vector-effect="non-scaling-stroke" style="fill: url(#gradient-0-1);"/>
    <g id="svgGroup" stroke-linecap="round" fill-rule="nonzero" font-size="9pt" stroke="#00000000" stroke-width="0" fill="#752c2c" style="stroke:#00000000;stroke-width:0;fill:#752c2c" transform="matrix(1.001372, 0, 0, 1, 54.561138, 67.420998)">
      <path d="M 62.42 293.999 L 42.88 293.999 L 42.88 253.047 L 61.25 253.047 C 62.623 253.04 63.995 253.133 65.354 253.324 C 66.742 253.528 68 253.843 69.13 254.269 C 70.202 254.664 71.212 255.208 72.131 255.884 C 74.667 257.776 75.934 260.36 75.934 263.636 C 75.94 264.511 75.852 265.383 75.673 266.24 C 75.453 267.312 75.036 268.333 74.442 269.252 C 73.448 270.773 72.112 271.943 70.435 272.762 C 68.758 273.581 66.945 273.991 64.994 273.991 L 66.047 272.236 C 67.123 272.231 68.197 272.327 69.255 272.524 C 70.288 272.716 71.292 273.032 72.248 273.464 C 74.043 274.283 75.466 275.483 76.519 277.062 C 77.572 278.642 78.099 280.602 78.099 282.942 C 78.113 284.169 77.926 285.391 77.544 286.558 C 76.918 288.393 75.731 289.983 74.15 291.103 C 73.032 291.902 71.793 292.517 70.48 292.924 C 69.309 293.303 68.005 293.583 66.569 293.761 C 65.192 293.925 63.806 294.005 62.42 293.999 Z M 48.73 257.786 L 48.73 289.26 L 62.186 289.26 C 63.104 289.264 64.021 289.213 64.933 289.108 C 66.862 288.876 68.422 288.382 69.616 287.622 C 70.99 286.765 71.904 285.333 72.1 283.725 C 72.161 283.31 72.191 282.892 72.19 282.474 C 72.197 281.785 72.112 281.098 71.938 280.432 C 71.602 279.117 70.77 277.982 69.616 277.267 C 67.9 276.175 65.424 275.629 62.186 275.629 L 48.204 275.629 L 48.204 270.89 L 60.723 270.89 C 61.587 270.894 62.452 270.841 63.308 270.731 C 65.062 270.496 66.501 270.004 67.627 269.252 C 68.955 268.394 69.83 266.986 70.011 265.416 C 70.06 265.059 70.085 264.699 70.084 264.338 C 70.092 263.641 69.994 262.947 69.794 262.28 C 69.432 261.102 68.664 260.09 67.627 259.424 C 66.91 258.956 66.126 258.599 65.302 258.363 C 64.575 258.147 63.775 257.991 62.899 257.897 C 62.177 257.821 61.45 257.784 60.723 257.786 L 48.73 257.786 Z" id="0" vector-effect="non-scaling-stroke" style="fill: rgb(110, 110, 110);"/>
      <path d="M 115.189 293.999 L 87.166 293.999 L 87.166 253.047 L 93.017 253.047 L 93.017 288.909 L 115.189 288.909 L 115.189 293.999 Z" id="1" vector-effect="non-scaling-stroke" style="fill: rgb(110, 110, 110);"/>
      <path d="M 133.394 293.686 C 132.567 293.468 131.752 293.201 130.956 292.887 C 128.615 291.982 126.455 290.662 124.581 288.992 C 124.392 288.821 124.206 288.647 124.023 288.47 C 122.073 286.579 120.552 284.365 119.46 281.83 C 118.526 279.636 117.985 277.295 117.862 274.914 C 117.835 274.451 117.822 273.987 117.822 273.523 C 117.811 271.544 118.071 269.573 118.595 267.665 C 118.828 266.83 119.117 266.012 119.46 265.216 C 120.552 262.681 122.073 260.467 124.023 258.575 C 125.974 256.684 128.274 255.212 130.926 254.159 C 133.042 253.329 135.27 252.825 137.535 252.66 C 138.237 252.606 138.939 252.578 139.643 252.579 C 141.595 252.57 143.539 252.791 145.438 253.239 C 146.403 253.47 147.35 253.767 148.272 254.129 C 150.905 255.163 153.207 256.626 155.176 258.517 C 157.145 260.408 158.667 262.622 159.739 265.157 C 160.591 267.196 161.109 269.359 161.271 271.563 C 161.323 272.215 161.348 272.868 161.348 273.523 C 161.358 275.344 161.146 277.16 160.719 278.93 C 160.472 279.941 160.144 280.93 159.739 281.889 C 158.667 284.424 157.145 286.637 155.176 288.529 C 153.207 290.42 150.905 291.883 148.272 292.916 C 146.154 293.738 143.923 294.236 141.656 294.393 C 140.986 294.443 140.315 294.468 139.643 294.467 C 137.535 294.478 135.435 294.215 133.394 293.686 Z M 139.643 289.26 C 141.171 289.268 142.693 289.074 144.169 288.682 C 144.768 288.52 145.357 288.322 145.932 288.09 C 147.863 287.31 149.54 286.208 150.963 284.785 C 152.388 283.361 153.499 281.694 154.298 279.783 C 155.098 277.871 155.497 275.785 155.497 273.523 C 155.506 272.065 155.324 270.612 154.956 269.201 C 154.781 268.541 154.561 267.893 154.298 267.263 C 153.499 265.352 152.388 263.684 150.963 262.261 C 149.54 260.838 147.863 259.735 145.932 258.956 C 144.261 258.288 142.49 257.903 140.691 257.815 C 140.343 257.796 139.993 257.786 139.643 257.786 C 138.231 257.779 136.823 257.94 135.449 258.266 C 134.716 258.443 133.996 258.673 133.296 258.956 C 131.365 259.735 129.679 260.838 128.235 262.261 C 126.793 263.684 125.671 265.352 124.871 267.263 C 124.072 269.174 123.672 271.26 123.672 273.523 C 123.664 274.981 123.847 276.434 124.214 277.845 C 124.388 278.506 124.608 279.152 124.871 279.783 C 125.671 281.694 126.793 283.361 128.235 284.785 C 129.679 286.208 131.365 287.31 133.296 288.09 C 135.226 288.87 137.342 289.26 139.643 289.26 Z" id="2" vector-effect="non-scaling-stroke" style="fill: rgb(110, 110, 110);"/>
      <path d="M 204.23 258.956 L 200.427 262.641 C 199.322 261.466 198.042 260.47 196.631 259.687 C 196.156 259.425 195.665 259.191 195.162 258.985 C 193.207 258.191 191.117 257.784 189.007 257.787 C 188.973 257.787 188.937 257.786 188.902 257.786 C 187.348 257.778 185.799 257.973 184.294 258.365 C 183.684 258.526 183.084 258.723 182.496 258.956 C 180.527 259.735 178.821 260.828 177.377 262.232 C 175.935 263.636 174.813 265.303 174.013 267.234 C 173.317 268.935 172.919 270.742 172.838 272.578 C 172.822 272.893 172.814 273.208 172.814 273.523 C 172.814 275.785 173.214 277.881 174.013 279.812 C 174.813 281.742 175.935 283.41 177.377 284.814 C 178.821 286.218 180.527 287.31 182.496 288.09 C 184.203 288.758 186.006 289.143 187.836 289.232 C 188.191 289.251 188.547 289.26 188.902 289.26 C 190.948 289.273 192.978 288.904 194.887 288.171 C 194.979 288.135 195.071 288.098 195.162 288.061 C 197.113 287.261 198.868 286.023 200.427 284.346 L 204.23 288.031 C 202.358 290.138 200.086 291.736 197.414 292.829 C 195.284 293.689 193.034 294.213 190.743 294.383 C 190.033 294.439 189.322 294.468 188.61 294.467 C 186.659 294.477 184.714 294.255 182.815 293.807 C 181.851 293.576 180.904 293.278 179.981 292.916 C 177.348 291.883 175.066 290.42 173.136 288.529 C 171.205 286.637 169.694 284.424 168.602 281.889 C 167.718 279.81 167.187 277.599 167.032 275.346 C 166.986 274.739 166.964 274.131 166.964 273.523 C 166.954 271.657 167.179 269.798 167.636 267.989 C 167.885 267.021 168.207 266.075 168.602 265.157 C 169.694 262.622 171.215 260.408 173.165 258.517 C 175.116 256.626 177.407 255.163 180.039 254.129 C 182.159 253.308 184.389 252.81 186.656 252.653 C 187.326 252.603 187.997 252.579 188.668 252.579 C 190.657 252.569 192.641 252.801 194.573 253.272 C 195.541 253.511 196.49 253.817 197.414 254.188 C 200.086 255.26 202.358 256.85 204.23 258.956 Z" id="3" vector-effect="non-scaling-stroke" style="fill: rgb(110, 110, 110);"/>
      <path d="M 218.446 293.999 L 212.596 293.999 L 212.596 253.047 L 218.446 253.047 L 218.446 293.999 Z M 226.11 275.629 L 217.744 284.112 L 217.452 276.975 L 240.677 253.047 L 247.346 253.047 L 229.386 272.002 L 226.11 275.629 Z M 248.458 293.999 L 241.613 293.999 L 224.823 274.459 L 228.743 270.13 L 248.458 293.999 Z" id="4" vector-effect="non-scaling-stroke" style="fill: rgb(110, 110, 110);"/>
      <path d="M 287.128 258.956 L 283.325 262.641 C 282.221 261.466 280.94 260.47 279.529 259.687 C 279.054 259.425 278.563 259.191 278.06 258.985 C 276.105 258.191 274.015 257.784 271.905 257.787 C 271.871 257.787 271.836 257.786 271.8 257.786 C 270.246 257.778 268.697 257.973 267.192 258.365 C 266.582 258.526 265.982 258.723 265.394 258.956 C 263.425 259.735 261.719 260.828 260.275 262.232 C 258.833 263.636 257.711 265.303 256.912 267.234 C 256.215 268.935 255.818 270.742 255.736 272.578 C 255.721 272.893 255.712 273.208 255.712 273.523 C 255.712 275.785 256.113 277.881 256.912 279.812 C 257.711 281.742 258.833 283.41 260.275 284.814 C 261.719 286.218 263.425 287.31 265.394 288.09 C 267.101 288.758 268.905 289.143 270.734 289.232 C 271.089 289.251 271.445 289.26 271.8 289.26 C 273.846 289.273 275.876 288.904 277.785 288.171 C 277.877 288.135 277.969 288.098 278.06 288.061 C 280.011 287.261 281.766 286.023 283.325 284.346 L 287.128 288.031 C 285.256 290.138 282.984 291.736 280.313 292.829 C 278.182 293.689 275.932 294.213 273.641 294.383 C 272.931 294.439 272.22 294.468 271.508 294.467 C 269.557 294.477 267.612 294.255 265.713 293.807 C 264.749 293.576 263.802 293.278 262.879 292.916 C 260.246 291.883 257.965 290.42 256.034 288.529 C 254.103 286.637 252.592 284.424 251.5 281.889 C 250.616 279.81 250.085 277.599 249.93 275.346 C 249.885 274.739 249.862 274.131 249.862 273.523 C 249.852 271.657 250.078 269.798 250.534 267.989 C 250.783 267.021 251.106 266.075 251.5 265.157 C 252.592 262.622 254.113 260.408 256.063 258.517 C 258.014 256.626 260.305 255.163 262.937 254.129 C 265.057 253.308 267.287 252.81 269.554 252.653 C 270.224 252.603 270.895 252.579 271.566 252.579 C 273.555 252.569 275.539 252.801 277.471 253.272 C 278.439 253.511 279.388 253.817 280.313 254.188 C 282.984 255.26 285.256 256.85 287.128 258.956 Z" id="5" vector-effect="non-scaling-stroke" style="fill: rgb(110, 110, 110);"/>
      <path style="fill: rgb(110, 110, 110);" d="M 296.284 294.553 L 296.263 252.965 L 302.353 253.028 L 302.36 270.83 L 325.95 270.735 L 325.933 253.073 L 331.958 253.011 L 331.946 294.475 L 325.901 294.478 L 325.909 276.022 L 302.237 276.043 L 302.333 294.474 L 296.284 294.553 Z"/>
      <path d="M 342.822 293.999 L 336.797 293.999 L 355.342 253.047 L 361.134 253.047 L 379.738 293.999 L 373.595 293.999 L 357.039 256.323 L 359.379 256.323 L 342.822 293.999 Z M 371.021 283.761 L 344.695 283.761 L 346.274 279.081 L 369.324 279.081 L 371.021 283.761 Z" id="7" vector-effect="non-scaling-stroke" style="fill: rgb(110, 110, 110);"/>
      <path d="M 391.672 293.999 L 385.822 293.999 L 385.822 253.047 L 391.672 253.047 L 391.672 293.999 Z" id="8" vector-effect="non-scaling-stroke" style="fill: rgb(110, 110, 110);"/>
      <path d="M 409.808 293.999 L 403.958 293.999 L 403.958 253.047 L 408.755 253.047 L 435.842 286.686 L 433.326 286.686 L 433.326 253.047 L 439.176 253.047 L 439.176 293.999 L 434.379 293.999 L 407.292 260.36 L 409.808 260.36 L 409.808 293.999 Z" id="9" vector-effect="non-scaling-stroke" style="fill: rgb(110, 110, 110);"/>
      <path d="M 495.222 293.999 L 467.199 293.999 L 467.199 253.047 L 473.049 253.047 L 473.049 288.909 L 495.222 288.909 L 495.222 293.999 Z" id="11" vector-effect="non-scaling-stroke" style="fill: rgb(110, 110, 110);"/>
      <path d="M 513.427 293.686 C 512.599 293.468 511.784 293.201 510.988 292.887 C 508.647 291.982 506.487 290.662 504.614 288.992 C 504.425 288.821 504.238 288.647 504.055 288.47 C 502.106 286.579 500.585 284.365 499.492 281.83 C 498.559 279.636 498.017 277.295 497.894 274.914 C 497.868 274.451 497.854 273.987 497.854 273.523 C 497.843 271.544 498.103 269.573 498.627 267.665 C 498.86 266.83 499.15 266.012 499.492 265.216 C 500.585 262.681 502.106 260.467 504.055 258.575 C 506.006 256.684 508.307 255.212 510.959 254.159 C 513.074 253.329 515.302 252.825 517.567 252.66 C 518.269 252.606 518.972 252.578 519.676 252.579 C 521.627 252.57 523.572 252.791 525.471 253.239 C 526.435 253.47 527.382 253.767 528.305 254.129 C 530.937 255.163 533.239 256.626 535.208 258.517 C 537.178 260.408 538.699 262.622 539.771 265.157 C 540.624 267.196 541.141 269.359 541.303 271.563 C 541.355 272.215 541.381 272.868 541.38 273.523 C 541.39 275.344 541.179 277.16 540.752 278.93 C 540.504 279.941 540.177 280.93 539.771 281.889 C 538.699 284.424 537.178 286.637 535.208 288.529 C 533.239 290.42 530.937 291.883 528.305 292.916 C 526.186 293.738 523.956 294.236 521.688 294.393 C 521.019 294.443 520.348 294.468 519.676 294.467 C 517.568 294.478 515.468 294.215 513.427 293.686 Z M 519.676 289.26 C 521.203 289.268 522.725 289.074 524.201 288.682 C 524.8 288.52 525.39 288.322 525.965 288.09 C 527.895 287.31 529.573 286.208 530.996 284.785 C 532.42 283.361 533.532 281.694 534.331 279.783 C 535.13 277.871 535.53 275.785 535.53 273.523 C 535.538 272.065 535.356 270.612 534.988 269.201 C 534.814 268.541 534.594 267.893 534.331 267.263 C 533.532 265.352 532.42 263.684 530.996 262.261 C 529.573 260.838 527.895 259.735 525.965 258.956 C 524.293 258.288 522.522 257.903 520.724 257.815 C 520.375 257.796 520.026 257.786 519.676 257.786 C 518.263 257.779 516.856 257.94 515.481 258.266 C 514.748 258.443 514.028 258.673 513.328 258.956 C 511.398 259.735 509.711 260.838 508.268 262.261 C 506.825 263.684 505.704 265.352 504.904 267.263 C 504.105 269.174 503.704 271.26 503.704 273.523 C 503.697 274.981 503.879 276.434 504.246 277.845 C 504.421 278.506 504.64 279.152 504.904 279.783 C 505.704 281.694 506.825 283.361 508.268 284.785 C 509.711 286.208 511.398 287.31 513.328 288.09 C 515.259 288.87 517.375 289.26 519.676 289.26 Z" id="12" vector-effect="non-scaling-stroke" style="fill: rgb(110, 110, 110);"/>
      <path d="M 584.321 289.26 C 582.437 290.842 580.285 292.072 577.966 292.893 C 577.717 292.983 577.465 293.069 577.213 293.15 C 574.503 294.028 571.704 294.467 568.818 294.467 C 566.926 294.476 565.039 294.273 563.191 293.862 C 562.139 293.624 561.106 293.308 560.101 292.916 C 557.449 291.883 555.148 290.42 553.198 288.529 C 551.248 286.637 549.727 284.424 548.634 281.889 C 547.75 279.81 547.219 277.599 547.064 275.346 C 547.019 274.739 546.996 274.131 546.996 273.523 C 546.986 271.657 547.212 269.798 547.668 267.989 C 547.917 267.021 548.24 266.075 548.634 265.157 C 549.727 262.622 551.258 260.408 553.227 258.517 C 555.197 256.626 557.508 255.163 560.159 254.129 C 562.812 253.095 565.737 252.579 568.935 252.579 C 572.172 252.579 575.136 253.105 577.827 254.159 C 580.518 255.212 582.8 256.791 584.672 258.897 L 581.045 262.524 C 580.06 261.552 578.961 260.702 577.773 259.993 C 577.071 259.578 576.336 259.221 575.575 258.926 C 573.898 258.287 572.132 257.914 570.341 257.82 C 569.951 257.797 569.56 257.786 569.169 257.786 C 567.562 257.777 565.96 257.979 564.404 258.384 C 563.808 258.542 563.221 258.733 562.646 258.956 C 561.017 259.577 559.502 260.464 558.163 261.582 C 557.915 261.791 557.673 262.007 557.439 262.232 C 555.976 263.636 554.846 265.303 554.046 267.234 C 553.35 268.935 552.952 270.742 552.87 272.578 C 552.855 272.893 552.847 273.208 552.847 273.523 C 552.837 275.297 553.114 277.061 553.669 278.745 C 553.783 279.086 553.909 279.422 554.046 279.753 C 554.846 281.684 555.976 283.361 557.439 284.785 C 558.902 286.208 560.627 287.31 562.617 288.09 C 564.28 288.734 566.032 289.115 567.812 289.219 C 568.244 289.247 568.677 289.26 569.11 289.26 C 571.295 289.26 573.391 288.919 575.399 288.236 C 577.408 287.553 579.27 286.413 580.986 284.814 L 584.321 289.26 L 578.705 288.5 L 578.705 273.289 L 584.321 273.289 L 584.321 289.26 Z" id="13" vector-effect="non-scaling-stroke" style="fill: rgb(110, 110, 110);"/>
      <path d="M 601.345 293.999 L 595.495 293.999 L 595.495 253.047 L 601.345 253.047 L 601.345 293.999 Z" id="14" vector-effect="non-scaling-stroke" style="fill: rgb(110, 110, 110);"/>
      <path d="M 609.887 289.319 L 612.051 284.755 C 612.925 285.512 613.876 286.172 614.889 286.727 C 615.808 287.236 616.816 287.697 617.912 288.109 C 617.948 288.123 617.983 288.135 618.018 288.149 C 620.437 289.045 622.953 289.494 625.565 289.494 C 627.945 289.494 629.875 289.221 631.357 288.675 C 632.84 288.129 633.931 287.378 634.633 286.423 C 635.335 285.467 635.686 284.385 635.686 283.176 C 635.686 281.772 635.228 280.641 634.311 279.783 C 633.799 279.308 633.231 278.896 632.62 278.556 C 632.054 278.236 631.428 277.952 630.743 277.706 C 629.81 277.372 628.864 277.076 627.906 276.82 C 627.247 276.642 626.583 276.479 625.916 276.331 C 624.161 275.941 622.397 275.483 620.622 274.956 C 619.445 274.611 618.296 274.179 617.183 273.663 C 616.702 273.439 616.229 273.197 615.766 272.938 C 614.303 272.119 613.124 271.017 612.227 269.632 C 611.762 268.901 611.421 268.099 611.218 267.256 C 611.05 266.587 610.945 265.862 610.902 265.08 C 610.888 264.814 610.881 264.546 610.881 264.279 C 610.881 262.173 611.437 260.233 612.548 258.458 C 613.259 257.343 614.177 256.374 615.254 255.606 C 616.02 255.054 616.838 254.579 617.697 254.188 C 618.746 253.712 619.845 253.354 620.972 253.117 C 622.055 252.882 623.23 252.724 624.495 252.642 C 625.183 252.599 625.871 252.578 626.56 252.579 C 628.939 252.579 631.298 252.891 633.639 253.515 C 634.826 253.827 635.985 254.237 637.104 254.741 C 638.017 255.154 638.894 255.644 639.723 256.206 L 637.792 260.886 C 636.037 259.716 634.185 258.868 632.235 258.341 C 630.945 257.989 629.627 257.751 628.296 257.629 C 627.719 257.578 627.14 257.553 626.56 257.552 C 625.784 257.549 625.009 257.587 624.237 257.665 C 623.474 257.746 622.77 257.868 622.125 258.032 C 621.704 258.138 621.29 258.271 620.885 258.429 C 619.715 258.891 618.793 259.476 618.121 260.181 C 617.946 260.365 617.784 260.561 617.638 260.769 C 616.956 261.745 616.614 262.836 616.614 264.045 C 616.61 264.562 616.678 265.077 616.816 265.574 C 617.023 266.31 617.429 266.976 617.989 267.497 C 618.517 267.986 619.105 268.406 619.738 268.747 C 620.288 269.049 620.894 269.315 621.556 269.545 C 621.557 269.545 621.558 269.545 621.558 269.545 C 622.469 269.859 623.389 270.143 624.317 270.396 C 625.004 270.584 625.692 270.758 626.384 270.92 C 628.139 271.329 629.904 271.787 631.679 272.294 C 632.856 272.627 634.006 273.051 635.118 273.561 C 635.599 273.784 636.072 274.024 636.534 274.283 C 637.997 275.102 639.177 276.195 640.074 277.56 C 640.883 278.791 641.327 280.338 641.406 282.203 C 641.415 282.41 641.419 282.618 641.419 282.825 C 641.419 284.892 640.854 286.813 639.723 288.587 C 639.018 289.676 638.114 290.622 637.058 291.377 C 636.254 291.957 635.393 292.453 634.487 292.858 C 633.381 293.351 632.224 293.72 631.037 293.958 C 629.917 294.191 628.705 294.345 627.401 294.417 C 626.79 294.451 626.178 294.468 625.565 294.467 C 622.445 294.467 619.462 293.989 616.614 293.033 C 614.324 292.265 612.424 291.313 610.915 290.178 C 610.558 289.909 610.215 289.623 609.887 289.319 Z" id="15" vector-effect="non-scaling-stroke" style="fill: rgb(110, 110, 110);"/>
      <path d="M 663.299 293.999 L 657.508 293.999 L 657.508 258.137 L 643.467 258.137 L 643.467 253.047 L 677.34 253.047 L 677.34 258.137 L 663.299 258.137 L 663.299 293.999 Z" id="16" vector-effect="non-scaling-stroke" style="fill: rgb(110, 110, 110);"/>
      <path d="M 689.567 293.999 L 683.717 293.999 L 683.717 253.047 L 689.567 253.047 L 689.567 293.999 Z" id="17" vector-effect="non-scaling-stroke" style="fill: rgb(110, 110, 110);"/>
      <path d="M 735.784 258.956 L 731.981 262.641 C 730.876 261.466 729.596 260.47 728.185 259.687 C 727.71 259.425 727.219 259.191 726.716 258.985 C 724.761 258.191 722.671 257.784 720.561 257.787 C 720.527 257.787 720.491 257.786 720.456 257.786 C 718.902 257.778 717.353 257.973 715.848 258.365 C 715.238 258.526 714.638 258.723 714.05 258.956 C 712.081 259.735 710.375 260.828 708.931 262.232 C 707.489 263.636 706.367 265.303 705.567 267.234 C 704.871 268.935 704.473 270.742 704.392 272.578 C 704.376 272.893 704.368 273.208 704.368 273.523 C 704.368 275.785 704.768 277.881 705.567 279.812 C 706.367 281.742 707.489 283.41 708.931 284.814 C 710.375 286.218 712.081 287.31 714.05 288.09 C 715.757 288.758 717.56 289.143 719.39 289.232 C 719.745 289.251 720.101 289.26 720.456 289.26 C 722.502 289.273 724.532 288.904 726.441 288.171 C 726.533 288.135 726.625 288.098 726.716 288.061 C 728.667 287.261 730.422 286.023 731.981 284.346 L 735.784 288.031 C 733.912 290.138 731.64 291.736 728.968 292.829 C 726.838 293.689 724.588 294.213 722.297 294.383 C 721.587 294.439 720.876 294.468 720.164 294.467 C 718.213 294.477 716.268 294.255 714.369 293.807 C 713.405 293.576 712.458 293.278 711.535 292.916 C 708.902 291.883 706.62 290.42 704.69 288.529 C 702.759 286.637 701.248 284.424 700.156 281.889 C 699.272 279.81 698.741 277.599 698.586 275.346 C 698.54 274.739 698.518 274.131 698.518 273.523 C 698.508 271.657 698.734 269.798 699.19 267.989 C 699.439 267.021 699.761 266.075 700.156 265.157 C 701.248 262.622 702.769 260.408 704.719 258.517 C 706.67 256.626 708.961 255.163 711.593 254.129 C 713.713 253.308 715.943 252.81 718.21 252.653 C 718.88 252.603 719.551 252.579 720.222 252.579 C 722.211 252.569 724.195 252.801 726.127 253.272 C 727.095 253.511 728.044 253.817 728.968 254.188 C 731.64 255.26 733.912 256.85 735.784 258.956 Z" id="18" vector-effect="non-scaling-stroke" style="fill: rgb(110, 110, 110);"/>
      <path d="M 740.347 289.319 L 742.512 284.755 C 743.386 285.512 744.337 286.172 745.35 286.727 C 746.268 287.236 747.276 287.697 748.373 288.109 C 748.409 288.123 748.444 288.135 748.479 288.149 C 750.898 289.045 753.413 289.494 756.026 289.494 C 758.405 289.494 760.336 289.221 761.818 288.675 C 763.3 288.129 764.392 287.378 765.094 286.423 C 765.796 285.467 766.147 284.385 766.147 283.176 C 766.147 281.772 765.689 280.641 764.772 279.783 C 764.26 279.308 763.691 278.896 763.08 278.556 C 762.515 278.236 761.889 277.952 761.203 277.706 C 760.271 277.372 759.325 277.076 758.367 276.82 C 757.707 276.642 757.044 276.479 756.377 276.331 C 754.622 275.941 752.858 275.483 751.082 274.956 C 749.906 274.611 748.757 274.179 747.643 273.663 C 747.163 273.439 746.69 273.197 746.227 272.938 C 744.764 272.119 743.585 271.017 742.687 269.632 C 742.223 268.901 741.882 268.099 741.679 267.256 C 741.511 266.587 741.405 265.862 741.363 265.08 C 741.348 264.814 741.342 264.546 741.342 264.279 C 741.342 262.173 741.898 260.233 743.009 258.458 C 743.719 257.343 744.638 256.374 745.714 255.606 C 746.481 255.054 747.299 254.579 748.157 254.188 C 749.207 253.712 750.305 253.354 751.433 253.117 C 752.516 252.882 753.691 252.724 754.956 252.642 C 755.644 252.599 756.332 252.578 757.02 252.579 C 759.4 252.579 761.759 252.891 764.099 253.515 C 765.287 253.827 766.446 254.237 767.564 254.741 C 768.478 255.154 769.354 255.644 770.183 256.206 L 768.253 260.886 C 766.498 259.716 764.646 258.868 762.695 258.341 C 761.406 257.989 760.088 257.751 758.756 257.629 C 758.18 257.578 757.6 257.553 757.02 257.552 C 756.245 257.549 755.47 257.587 754.698 257.665 C 753.935 257.746 753.231 257.868 752.586 258.032 C 752.165 258.138 751.751 258.271 751.346 258.429 C 750.176 258.891 749.254 259.476 748.582 260.181 C 748.406 260.365 748.245 260.561 748.099 260.769 C 747.417 261.745 747.075 262.836 747.075 264.045 C 747.071 264.562 747.139 265.077 747.276 265.574 C 747.484 266.31 747.89 266.976 748.45 267.497 C 748.978 267.986 749.566 268.406 750.198 268.747 C 750.749 269.049 751.355 269.315 752.017 269.545 C 752.018 269.545 752.018 269.545 752.018 269.545 C 752.929 269.859 753.85 270.143 754.778 270.396 C 755.464 270.584 756.153 270.758 756.845 270.92 C 758.6 271.329 760.365 271.787 762.139 272.294 C 763.317 272.627 764.467 273.051 765.578 273.561 C 766.06 273.784 766.533 274.024 766.995 274.283 C 768.458 275.102 769.638 276.195 770.534 277.56 C 771.344 278.791 771.788 280.338 771.867 282.203 C 771.876 282.41 771.88 282.618 771.88 282.825 C 771.88 284.892 771.315 286.813 770.183 288.587 C 769.479 289.676 768.575 290.622 767.519 291.377 C 766.715 291.957 765.853 292.453 764.948 292.858 C 763.842 293.351 762.685 293.72 761.498 293.958 C 760.378 294.191 759.166 294.345 757.861 294.417 C 757.25 294.451 756.638 294.468 756.026 294.467 C 752.906 294.467 749.922 293.989 747.075 293.033 C 744.784 292.265 742.885 291.313 741.376 290.178 C 741.019 289.909 740.676 289.623 740.347 289.319 Z" id="19" vector-effect="non-scaling-stroke" style="fill: rgb(110, 110, 110);"/>
    </g>
  </g>
  <g>
    <rect style="fill: none; stroke-width: 6px; stroke: rgb(110, 110, 110);" x="83.338" y="384.53" width="39" height="38.983" transform="matrix(-0.000076, 1, -1, -0.000069, 1304.012695, 45.058937)"/>
    <rect y="384.532" width="39" height="38.985" style="fill: none; stroke-width: 6px; stroke: rgb(110, 110, 110);" x="161.333" transform="matrix(-0.000076, 1, -1, -0.000069, 1304.022583, 64.05497)"/>
    <rect y="384.532" width="39" height="38.985" style="fill: none; stroke-width: 6px; stroke: rgb(110, 110, 110);" x="239.336" transform="matrix(-0.000076, 1, -1, -0.000069, 1304.028564, 81.951942)"/>
    <rect x="66.312" y="437.846" width="11.992" height="11.99" style="stroke-width: 5.1928px; stroke-opacity: 0.5; fill: rgb(110, 110, 110);" transform="matrix(-0.707036, 0.707178, -0.706932, -0.707281, 1265.338745, 459.196503)"/>
    <rect x="66.312" y="437.846" width="11.992" height="11.99" style="stroke-width: 5.1928px; stroke-opacity: 0.5; fill: rgb(110, 110, 110);" transform="matrix(-0.707036, 0.707178, -0.706932, -0.707281, 1265.338745, 555.144653)"/>
  </g>
</svg>