<?xml version="1.0" encoding="utf-8"?>
<svg viewBox="0 0 500 500" xmlns="http://www.w3.org/2000/svg">
  <defs>
    <clipPath id="clippath0" transform="">
      <path d="M 320.771 592.863 C 222.554 585.9 146.547 576.72 94.86 565.578 L 94.86 565.578 C 43.304 554.463 14.35 541.231 6.343 525.125 L 6.343 525.125 C 2.502 517.399 3.34 509.205 8.834 500.768 L 8.834 500.768 C 22.261 480.155 86.199 463.658 153.893 446.192 L 153.893 446.192 C 217.02 429.905 288.571 411.444 303.251 391.279 L 303.251 391.279 C 305.339 388.413 305.05 386.518 304.65 385.341 L 304.65 385.341 C 300.579 373.35 259.525 361.235 223.303 350.546 L 223.303 350.546 C 171.15 335.156 117.221 319.243 108.352 293.217 L 108.352 293.217 C 105.577 285.075 107.344 276.566 113.602 267.929 L 113.602 267.929 C 134.661 238.865 190.46 226.559 255.069 212.311 L 255.069 212.311 C 297.706 202.909 346.032 192.252 388.157 175.365 L 388.157 175.365 C 435.944 156.208 469.035 131.754 489.321 100.607 L 489.321 100.607 C 508.695 70.86 548.944 45.813 605.72 28.173 L 605.72 28.173 C 655.157 12.812 715.625 4.002 771.618 4 L 771.618 4 L 771.638 4 C 854.014 4 913.019 22.112 929.465 52.447 L 929.465 52.447 C 937.777 67.777 935.543 85.45 922.827 104.971 L 922.827 104.971 C 898.918 141.683 849.994 171.886 773.261 197.306 L 773.261 197.306 C 707.792 218.993 634.124 233.421 569.128 246.149 L 569.128 246.149 C 496.452 260.383 433.688 272.674 423.377 288.506 L 423.377 288.506 C 420.757 292.528 420.062 296.003 421.252 299.127 L 421.252 299.127 C 425.965 311.497 458.626 320.382 487.444 328.221 L 487.444 328.221 C 524.399 338.273 559.305 347.767 566.629 366.993 L 566.629 366.993 C 569.309 374.032 567.996 381.705 562.723 389.8 L 562.723 389.8 C 552.088 406.13 521.068 420.966 465.1 436.485 L 465.1 436.485 C 417.496 449.685 360.382 461.044 305.149 472.028 L 305.149 472.028 C 229.98 486.977 152.252 502.436 142.449 516.298 L 142.449 516.298 C 139.167 520.939 138.523 525.086 140.422 529.348 L 140.422 529.348 C 153.644 559.024 275.632 579.511 321.52 584.9 L 321.52 584.9 C 323.678 585.154 325.239 587.084 325.036 589.248 L 325.036 589.248 C 324.841 591.315 323.103 592.873 321.057 592.873 L 321.057 592.873 C 320.962 592.873 320.866 592.87 320.771 592.863" style="fill: none; clip-rule: nonzero;"/>
    </clipPath>
  </defs>
  <g style="clip-path: url(#clippath0);" transform="matrix(0.649179, 0, 0, -0.646344, 57.373894, 378.599335)">
    <g transform="matrix(-0.000031, -588.873535, -588.873535, 0.000031, 469.179688, 592.873047)">
      <rect x="-0.007" y="-0.797" width="1.52" height="2.39" style="fill: rgb(139, 162, 193);"/>
    </g>
  </g>
</svg>