<?xml version="1.0" encoding="utf-8"?>
<svg viewBox="0 0 1000 200" xmlns="http://www.w3.org/2000/svg" xmlns:xlink="http://www.w3.org/1999/xlink" xmlns:bx="https://boxy-svg.com">
  <defs>
    <linearGradient id="gradient-0-1" gradientUnits="userSpaceOnUse" x1="462.703" y1="125.275" x2="462.703" y2="267.376" gradientTransform="matrix(0.004767, -0.999987, 5.092398, 0.024275, -543.055176, 665.579407)" xlink:href="#gradient-0"/>
  </defs>
  <linearGradient id="gradient-0" bx:pinned="true">
    <stop offset="0" style="stop-color: rgb(168, 168, 168);"/>
    <stop offset="0.5" style="stop-color: rgb(139, 162, 193);"/>
    <stop offset="1" style="stop-color: rgb(83, 130, 201);"/>
  </linearGradient>
  <g transform="matrix(1.369124, 0, 0, 1.369124, -133.937744, -171.606735)">
    <path d="M 183.578 220.28 L 216.667 267.376 L 191.495 267.376 L 161.654 224.949 C 161.015 225.028 160.374 225.082 159.731 225.113 C 159.188 225.139 158.645 225.152 158.101 225.152 L 120.648 225.152 L 120.648 267.376 L 97.506 267.376 L 97.506 205.461 L 153.534 205.461 C 157.02 205.48 160.503 205.234 163.952 204.726 C 171.239 203.608 177.071 201.214 181.447 197.544 C 186.456 193.35 189.69 187.413 190.497 180.93 C 190.762 179.104 190.892 177.262 190.886 175.417 C 190.886 165.808 187.74 158.399 181.447 153.188 C 176.668 149.231 170.152 146.777 161.9 145.825 C 159.122 145.515 156.329 145.364 153.534 145.373 L 97.506 145.373 L 97.506 125.276 L 154.346 125.276 C 158.78 125.261 163.21 125.548 167.605 126.137 C 171.608 126.672 175.557 127.539 179.416 128.727 C 186.792 131.028 193.051 134.343 198.194 138.674 C 203.337 143.005 207.295 148.249 210.07 154.406 C 212.844 160.564 214.231 167.568 214.231 175.417 C 214.231 186.379 211.558 195.683 206.213 203.329 C 201.791 209.597 195.842 214.633 188.931 217.962 C 187.187 218.825 185.401 219.599 183.578 220.28 Z M 304.1 148.824 L 252.538 267.376 L 228.584 267.376 L 292.732 125.276 L 315.671 125.276 L 380.022 267.376 L 355.662 267.376 L 304.1 148.824 Z M 397.713 145.373 L 397.713 125.276 L 499.619 125.276 L 499.619 145.373 L 397.713 145.373 Z M 499.619 247.279 L 499.619 267.376 L 397.713 267.376 L 397.713 247.279 L 499.619 247.279 Z M 397.713 205.055 L 397.713 185.364 L 499.619 185.364 L 499.619 205.055 L 397.713 205.055 Z M 532.723 196.326 L 555.865 196.326 L 555.865 247.279 L 592.405 247.279 C 596.655 247.296 600.899 246.951 605.09 246.248 C 608.511 245.67 611.874 244.792 615.141 243.625 C 619.405 242.116 623.456 240.064 627.195 237.518 C 629.064 236.234 630.837 234.815 632.498 233.272 C 637.302 228.806 640.99 223.46 643.561 217.235 C 646.132 211.01 647.418 204.04 647.418 196.326 C 647.438 192.246 647.04 188.175 646.231 184.176 C 645.617 181.179 644.723 178.247 643.561 175.417 C 640.99 169.192 637.302 163.846 632.498 159.38 C 628.478 155.675 623.862 152.674 618.844 150.504 C 617.627 149.969 616.392 149.477 615.141 149.027 C 608.374 146.591 600.796 145.373 592.405 145.373 L 532.723 145.373 L 532.723 125.276 L 593.623 125.276 C 599.81 125.251 605.986 125.799 612.071 126.914 C 616.5 127.735 620.853 128.918 625.088 130.452 C 634.561 133.903 642.681 138.742 649.448 144.967 C 656.215 151.192 661.459 158.669 665.181 167.398 C 668.081 174.29 669.862 181.6 670.456 189.054 C 670.662 191.472 670.765 193.899 670.763 196.326 C 670.763 206.882 668.902 216.524 665.181 225.253 C 661.459 233.982 656.215 241.46 649.448 247.685 C 642.681 253.91 634.561 258.748 625.088 262.199 C 615.615 265.65 605.126 267.376 593.623 267.376 L 532.723 267.376 L 532.723 196.326 Z M 751.978 148.824 L 700.416 267.376 L 676.462 267.376 L 740.61 125.276 L 763.549 125.276 L 827.9 267.376 L 803.54 267.376 L 751.978 148.824 Z" id="0" vector-effect="non-scaling-stroke" style="fill: url(#gradient-0-1);"/>
  </g>
</svg>