<?xml version="1.0" encoding="utf-8"?>
<svg viewBox="0 0 500 500" xmlns="http://www.w3.org/2000/svg" xmlns:bx="https://boxy-svg.com">
  <linearGradient id="gradient-0" bx:pinned="true">
    <stop offset="0" style="stop-color: rgb(168, 168, 168);"/>
    <stop offset="0.5" style="stop-color: rgb(139, 162, 193);"/>
    <stop offset="1" style="stop-color: rgb(83, 130, 201);"/>
  </linearGradient>
  <g transform="matrix(0.996753, 0, 0, 0.996753, 23.633656, 5.60395)" bx:origin="0.5 0.503222">
    <path d="M 300.594 305.151 L 386.12 426.882 L 321.057 426.882 L 243.926 317.219 C 242.274 317.424 240.617 317.563 238.955 317.643 C 237.552 317.711 236.148 317.744 234.742 317.744 L 137.936 317.744 L 137.936 426.882 L 78.12 426.882 L 78.12 266.848 L 222.938 266.848 C 231.948 266.897 240.951 266.261 249.865 264.948 C 268.7 262.059 283.775 255.871 295.085 246.385 C 308.032 235.544 316.391 220.199 318.477 203.442 C 319.162 198.722 319.498 193.961 319.483 189.192 C 319.483 164.355 311.351 145.205 295.085 131.736 C 282.733 121.508 265.891 115.165 244.562 112.705 C 237.381 111.903 230.162 111.513 222.938 111.536 L 78.12 111.536 L 78.12 59.591 L 225.037 59.591 C 236.497 59.552 247.948 60.294 259.308 61.816 C 269.654 63.199 279.861 65.44 289.836 68.511 C 308.901 74.458 325.079 83.027 338.372 94.221 C 351.665 105.416 361.896 118.97 369.068 134.884 C 376.239 150.801 379.824 168.905 379.824 189.192 C 379.824 217.526 372.915 241.575 359.099 261.337 C 347.669 277.539 332.293 290.555 314.43 299.16 C 309.922 301.391 305.306 303.391 300.594 305.151 Z" id="0" vector-effect="non-scaling-stroke" style="fill: rgb(83, 130, 201);"/>
  </g>
</svg>