<?xml version="1.0" standalone="no"?>
<!DOCTYPE svg PUBLIC "-//W3C//DTD SVG 20010904//EN"
 "http://www.w3.org/TR/2001/REC-SVG-20010904/DTD/svg10.dtd">
<svg version="1.0" xmlns="http://www.w3.org/2000/svg"
 width="700.000000pt" height="700.000000pt" viewBox="0 0 700.000000 700.000000"
 preserveAspectRatio="xMidYMid meet">
<metadata>
Created by potrace 1.14, written by Peter Selinger 2001-2017
</metadata>
<g transform="translate(0.000000,700.000000) scale(0.100000,-0.100000)"
fill="#000000" stroke="none">
<path d="M1420 5728 l0 -363 1088 -1 c1038 -1 1166 -3 1292 -24 30 -5 69 -11
85 -13 60 -9 162 -36 235 -63 367 -131 587 -392 655 -774 11 -59 14 -323 5
-370 -4 -25 -11 -65 -15 -90 -9 -64 -53 -196 -88 -260 -184 -345 -513 -522
-1047 -566 -36 -3 -548 -5 -1137 -6 l-1073 0 0 -1117 0 -1116 418 0 417 0 1
755 c1 415 2 758 3 761 0 3 297 6 659 7 361 0 693 1 737 3 l80 2 138 -194 c76
-107 145 -205 155 -219 9 -14 68 -98 132 -188 63 -90 122 -173 130 -185 14
-21 184 -263 313 -447 33 -47 81 -114 106 -150 24 -36 58 -83 74 -105 l28 -40
450 0 c247 0 449 1 449 3 0 9 -25 48 -41 66 -11 11 -19 25 -19 32 0 7 -4 14
-8 16 -7 3 -116 156 -267 373 -23 33 -183 260 -355 505 -172 245 -332 472
-355 505 -23 33 -63 91 -90 128 -26 37 -46 69 -44 71 2 1 40 18 84 36 514 219
861 628 970 1140 16 76 18 89 35 215 9 74 6 428 -5 505 -6 41 -33 170 -54 260
-28 119 -125 324 -222 470 -90 137 -281 324 -429 422 -257 170 -561 286 -880
334 -19 3 -46 7 -60 10 -14 2 -50 6 -80 9 -30 4 -71 9 -90 12 -19 4 -563 8
-1207 10 l-1173 4 0 -363z"/>
</g>
</svg>
